<?xml version="1.0" standalone="no"?>
<!DOCTYPE svg PUBLIC "-//W3C//DTD SVG 20010904//EN"
 "http://www.w3.org/TR/2001/REC-SVG-20010904/DTD/svg10.dtd">
<svg version="1.0" xmlns="http://www.w3.org/2000/svg"
 width="828.000000pt" height="279.000000pt" viewBox="0 0 828.000000 279.000000"
 preserveAspectRatio="xMidYMid meet">
<metadata>
Created by potrace 1.15, written by Peter Selinger 2001-2017
</metadata>
<g transform="translate(0.000000,279.000000) scale(0.100000,-0.100000)"
fill="#000000" stroke="none">
<path d="M3415 2770 c-165 -29 -249 -58 -369 -128 -185 -107 -330 -286 -407
-502 -21 -58 -23 -84 -24 -250 l-1 -185 -47 -90 c-94 -179 -204 -302 -294
-329 -20 -6 -23 -4 -23 18 0 13 5 37 11 53 36 92 49 172 49 306 0 158 -7 182
-71 252 -64 69 -107 88 -214 93 -269 13 -506 -153 -646 -453 -46 -98 -66 -180
-75 -301 -3 -49 -13 -99 -21 -112 -23 -38 -228 -182 -258 -182 -13 0 0 60 70
323 93 349 111 435 99 479 -13 44 -75 86 -141 97 -40 6 -62 17 -94 46 -80 72
-212 113 -319 100 -214 -27 -431 -220 -560 -498 -61 -132 -74 -192 -74 -347
-1 -120 1 -139 21 -175 43 -81 131 -143 225 -160 87 -16 219 39 348 146 83 69
116 85 106 52 -2 -10 -10 -45 -16 -78 -6 -33 -18 -81 -26 -106 -14 -44 -18
-47 -92 -79 -293 -127 -465 -247 -522 -365 -30 -61 -33 -173 -6 -223 26 -50
95 -112 156 -141 46 -21 70 -26 145 -26 152 0 240 43 350 171 87 103 151 233
220 448 l55 173 88 48 c48 27 125 73 171 102 l83 54 64 -61 c75 -72 110 -88
206 -96 160 -13 325 52 469 183 75 68 93 80 141 90 31 6 82 24 113 38 119 57
298 224 391 366 36 54 98 133 139 175 l74 76 -16 41 c-10 28 -15 78 -15 152 0
95 3 117 25 165 53 117 176 251 290 314 113 63 177 79 317 80 120 1 127 0 185
-29 139 -70 205 -249 159 -429 -52 -200 -231 -366 -415 -382 -74 -7 -142 11
-147 38 -3 16 107 307 145 385 8 17 37 56 63 85 73 82 75 88 49 163 -13 40
-28 67 -39 70 -22 7 -110 -27 -173 -67 -110 -70 -204 -219 -287 -453 -12 -33
-25 -69 -30 -80 -5 -11 -19 -47 -30 -80 -12 -33 -25 -69 -30 -80 -5 -11 -16
-38 -23 -60 -8 -22 -58 -155 -112 -295 -113 -296 -165 -439 -165 -451 0 -5 10
-7 23 -4 12 3 75 12 140 19 83 9 123 18 136 31 18 16 76 152 146 345 90 246
88 244 170 229 35 -6 117 -9 195 -7 122 5 143 8 216 37 248 97 445 345 474
597 28 246 -13 392 -147 521 -79 77 -160 118 -283 143 -115 24 -184 24 -315 0z
m-2606 -956 c31 -25 31 -27 31 -120 0 -108 -16 -167 -82 -298 -76 -151 -174
-282 -247 -328 -80 -51 -137 -32 -162 52 -32 106 58 402 170 564 36 51 107
119 146 139 48 25 108 22 144 -9z m1181 -41 c20 -25 22 -36 17 -118 -5 -95
-24 -164 -48 -176 -8 -4 -32 -16 -54 -26 -54 -26 -105 -101 -105 -154 0 -22 7
-56 15 -76 21 -50 20 -58 -22 -104 -82 -90 -146 -91 -192 -1 -14 27 -3 97 39
244 88 305 267 515 350 411z m-1390 -1165 c-1 -17 -56 -161 -81 -209 -73 -145
-145 -231 -211 -251 -44 -13 -61 -7 -84 26 -23 36 -12 81 36 153 74 110 269
283 321 283 10 0 19 -1 19 -2z"/>
<path d="M4483 2590 c-130 -66 -162 -220 -64 -303 133 -112 353 76 276 236
-35 73 -137 105 -212 67z"/>
<path d="M7870 2521 l-174 -88 -28 35 c-16 19 -47 49 -70 66 -39 29 -49 31
-123 31 -73 0 -88 -4 -157 -38 -59 -29 -92 -54 -150 -115 -87 -93 -143 -189
-213 -361 -104 -259 -256 -424 -388 -422 -51 1 -229 52 -234 67 -6 17 46 75
315 357 136 142 251 265 255 273 9 16 -26 75 -64 110 -19 17 -23 17 -87 0 -72
-18 -176 -22 -348 -10 -116 7 -179 -6 -256 -55 -75 -47 -129 -129 -263 -393
-134 -264 -181 -336 -277 -423 l-61 -55 -91 0 c-104 1 -229 35 -234 64 -4 17
5 27 333 371 116 121 218 230 229 242 19 22 19 23 -24 78 -46 60 -63 65 -123
40 -29 -12 -84 -15 -260 -15 -246 0 -288 -7 -356 -57 -69 -51 -115 -121 -239
-368 -129 -256 -206 -384 -305 -503 -122 -148 -228 -161 -202 -25 9 50 54 186
100 303 20 52 44 113 52 135 8 22 19 49 24 60 24 56 109 287 118 320 l10 37
-42 -7 c-23 -4 -88 -13 -145 -20 -56 -7 -109 -18 -117 -25 -16 -13 -45 -73
-70 -144 -8 -23 -23 -63 -33 -91 -188 -485 -204 -538 -205 -655 -1 -73 2 -91
23 -129 41 -73 67 -86 173 -86 84 0 99 3 157 32 164 81 314 260 498 596 101
184 155 257 207 282 66 31 295 10 283 -25 -2 -5 -132 -143 -289 -307 -158
-164 -298 -312 -313 -329 l-26 -32 33 -48 c20 -29 43 -50 56 -52 12 -2 44 11
74 30 46 29 59 33 122 33 48 0 92 -8 140 -25 130 -45 279 -26 401 52 136 86
246 229 428 557 53 95 113 193 132 217 42 51 123 94 176 94 59 0 178 -30 178
-44 0 -7 -89 -106 -197 -220 -276 -289 -423 -447 -423 -456 0 -19 73 -100 90
-100 10 0 41 14 69 31 70 44 115 46 246 14 137 -33 238 -35 317 -5 78 29 181
105 260 191 40 43 71 69 76 64 5 -6 14 -29 21 -53 14 -48 60 -106 104 -129 23
-11 45 -14 90 -8 109 12 155 36 297 153 29 23 55 42 58 42 4 0 19 -20 33 -43
36 -60 85 -82 174 -81 202 3 401 168 590 489 55 94 60 120 25 146 -53 39 -68
32 -123 -61 -101 -172 -217 -309 -295 -350 -34 -17 -70 -5 -78 26 -12 46 53
243 211 644 82 208 100 260 88 259 -4 0 -87 -40 -183 -88z m-299 -230 c20 -16
24 -28 23 -77 -1 -48 -13 -90 -64 -219 -83 -210 -143 -288 -258 -332 l-45 -17
-28 32 c-35 39 -36 52 -4 172 30 115 128 318 184 381 66 76 143 100 192 60z"/>
</g>
</svg>
