<?xml version="1.0" encoding="utf-8"?>
<!-- Generator: Adobe Illustrator 21.1.0, SVG Export Plug-In . SVG Version: 6.00 Build 0)  -->
<svg version="1.1" id="Layer_1" xmlns="http://www.w3.org/2000/svg" xmlns:xlink="http://www.w3.org/1999/xlink" x="0px" y="0px"
	 viewBox="0 0 900 405" style="enable-background:new 0 0 900 405;" xml:space="preserve">
<style type="text/css">
	.st0{fill:#FFFFFF;}
</style>
<g transform="translate(0.000000,405.000000) scale(0.100000,-0.100000)">
	<path class="st0" d="M3950,3160c-129-20-185-32-201-40c-10-6-25-10-34-10c-37,0-208-86-279-139c-96-73-104-81-169-166
		c-76-98-99-137-138-230c-47-112-63-238-48-375l10-95l-36-78c-33-71-90-161-152-244c-52-68-181-146-184-112c-2,27,3,50,17,77
		c7,15,14,34,14,42s7,35,16,60c12,33,17,84,17,185c1,126-1,145-22,189c-30,64-96,127-157,149c-106,38-274,18-404-47
		c-147-74-291-238-360-408c-12-29-27-64-32-78c-16-38-38-178-38-246c0-44-5-66-18-80c-39-44-228-174-252-174c-14,0-12,45,5,99
		c8,25,21,73,30,106s22,83,29,110c13,46,26,97,61,230c51,195,55,249,23,290c-27,34-91,64-138,65c-27,0-45,9-75,39
		c-66,63-149,98-256,108c-74,6-176-19-259-65c-140-77-305-273-374-442c-10-25-22-53-27-62c-5-10-13-34-18-55c-6-21-15-56-20-78
		c-6-22-11-90-11-152c-1-93,2-119,20-157c46-102,158-176,266-176c96,0,223,63,330,163c63,58,101,75,89,38c-3-11-10-43-15-73
		c-16-89-36-152-51-160c-8-4-32-14-54-23c-78-32-231-105-270-128c-133-80-229-165-265-237c-27-54-36-140-20-199
		c17-63,106-149,183-179c125-47,302-18,397,66c93,82,168,182,209,277c12,28,26,58,31,68c12,20,70,195,94,282c10,33,20,66,24,73
		s53,37,109,67c56,29,131,74,167,99l65,45l63-62c80-78,129-97,249-97c166,0,322,71,452,205c46,47,70,65,89,65c40,0,128,31,191,68
		c49,28,170,132,253,216c23,23,94,123,94,131c0,15,99,138,151,186l60,57l-18,43c-25,60-24,250,0,294c9,17,17,34,17,38
		c0,18,76,125,129,180c78,83,178,143,306,183c79,25,274,25,320,0c17-9,35-16,40-16c6,0,26-15,46-33c151-136,158-379,18-572
		c-65-90-130-141-229-180c-104-41-250-28-250,21c0,13,16,57,50,139c5,11,19,45,30,75c12,30,28,70,36,88s14,37,14,43
		c0,19,71,118,111,156c42,40,47,62,24,107c-8,15-15,36-15,46s-7,26-16,35c-20,20-43,15-133-27c-100-46-195-148-255-271
		c-25-53-46-102-46-111c0-8-4-17-9-21c-5-3-12-19-16-36s-13-42-21-57s-14-35-14-44s-4-19-9-23c-5-3-12-19-16-36s-13-42-21-57
		s-14-35-14-44s-4-19-9-23c-5-3-13-20-17-37c-3-18-10-39-15-48c-5-8-25-58-44-110c-20-52-42-111-49-130c-8-19-20-53-29-75
		c-49-132-77-205-93-242c-8-17-14-35-14-40c0-6-6-23-14-39s-17-44-21-63c-7-32-6-34,16-27c13,4,72,11,130,16c159,14,155,11,204,140
		c10,25,24,59,31,77c8,17,14,38,14,46c0,9,4,18,9,22c5,3,12,19,16,36s13,42,21,57s14,35,14,44s4,19,9,23c5,3,12,19,16,36
		s13,42,21,57s14,32,14,38s9,19,19,28c17,16,24,16,58,5c24-8,90-12,178-12c150,1,199,11,320,69c125,59,274,211,336,344
		c63,133,71,165,76,312c5,121,3,144-17,208c-34,109-59,151-140,230c-31,30-78,66-106,79c-27,13-57,28-67,33c-17,8-71,21-167,38
		C4087,3170,4013,3170,3950,3160z M1290,2185c23-24,25-32,24-113c0-84-9-122-51-222c-77-184-214-375-300-415c-184-88-203,179-37,520
		C1035,2179,1195,2280,1290,2185z M2457,2158c20-19,23-31,23-102c0-51-7-103-19-141c-16-53-22-60-51-68c-46-12-79-35-111-81
		c-24-32-29-49-29-96c0-34,6-64,15-76c26-34,18-63-31-110c-50-47-74-58-120-52c-22,2-34,13-52,45l-23,42l17,88c16,83,68,256,84,278
		c4,6,11,21,15,34c8,27,86,156,112,186C2351,2177,2415,2198,2457,2158z M1056,947c-9-19-16-40-16-46c0-26-82-193-130-262
		c-67-98-164-145-209-100c-12,12-21,34-21,53c0,89,173,289,330,381C1064,1005,1080,996,1056,947z"/>
	<path class="st0" d="M4958,2972c-82-39-128-107-128-189c0-57,21-96,67-128c114-77,283,29,283,177c0,66-23,104-82,135
		C5047,2994,5008,2996,4958,2972z"/>
	<path class="st0" d="M8340,2899l-175-89l-20,27c-36,50-85,90-124,102c-178,53-395-89-523-344c-49-96-55-110-82-188
		c-37-105-111-224-190-302c-59-59-81-73-131-88c-59-18-61-18-135,3c-41,13-94,28-118,34c-36,9-42,14-40,32c2,13,103,126,234,260
		c305,315,343,357,344,370c0,12-29,53-68,96c-23,25-27,26-57,14c-76-32-169-40-319-26c-78,7-158,9-177,5c-94-19-134-40-190-94
		c-68-68-91-105-202-331c-48-96-99-198-115-226c-49-89-131-191-190-235l-57-44h-91c-57,0-96,5-106,12c-8,7-37,17-65,23
		c-78,17-76,31,15,124c80,83,264,275,317,331c17,18,67,70,113,117c45,47,82,89,82,94s-12,23-26,39c-15,17-33,40-41,53
		c-18,27-52,28-96,5c-28-16-59-18-264-15c-198,2-238,0-275-14c-66-26-121-68-154-116c-16-23-32-45-35-48c-7-6-26-41-77-145
		c-135-275-135-276-222-420c-64-106-175-243-225-277c-65-44-115-34-115,24c0,34,18,112,36,155c8,17,14,36,14,42s6,25,14,43
		s22,53,31,78c10,25,24,59,31,77c8,17,14,35,14,41c0,5,7,23,15,38c8,16,15,37,15,46s4,19,9,22s12,18,15,33c4,16,13,42,21,58
		c28,59,97,256,92,262c-3,3-28,1-54-5s-79-13-118-17c-128-10-134-13-155-59c-38-86-50-114-50-124c0-5-7-23-15-38c-8-16-15-36-15-45
		c0-8-4-19-8-25c-8-9-16-29-82-204c-17-47-35-94-40-105c-17-37-48-139-66-213c-31-134-3-256,69-301c48-29,175-30,249,0
		c168,66,346,271,518,594c102,191,147,257,202,291c32,21,50,24,128,24c84,0,170-20,170-39c0-4-35-43-77-87c-366-376-549-568-551-580
		c-4-16,62-102,84-111c8-3,40,12,71,33c54,36,63,39,128,39c42,0,87-7,110-16c139-57,251-51,394,19c69,34,166,116,226,192
		c35,43,122,176,156,237c18,32,43,76,55,98c13,22,39,72,60,110c20,39,43,77,50,86c8,8,14,20,14,25c0,6,21,33,48,61
		c36,39,60,55,104,69c55,17,62,17,145,1c48-10,92-22,97-27c8-8-90-113-498-535c-69-71-126-137-126-147c0-9,20-38,44-65
		c39-42,47-46,63-36c94,64,117,74,178,70c33-2,85-12,115-21c129-41,224-44,318-11c77,27,165,88,232,161c88,95,100,105,110,99
		c5-3,10-15,10-26c0-41,41-109,83-140c40-29,46-31,117-27c97,5,179,44,275,133c69,65,95,78,95,50c0-22,69-95,91-95c10,0,21-4,24-10
		c8-14,120-13,164,1c88,28,180,81,250,144c74,67,198,230,251,330c5,11,21,38,35,60c37,61,33,81-20,106c-47,22-61,20-76-14
		c-5-12-18-35-29-52c-11-16-24-39-30-50c-18-35-98-146-142-198c-91-105-172-145-199-96c-19,36,1,121,77,319c14,36,31,81,39,100
		c25,67,48,125,61,157c8,17,14,35,14,41c0,5,7,23,15,38c8,16,15,36,15,45c0,8,4,19,9,25c4,5,13,23,19,39c6,17,20,55,31,85
		c23,60,25,70,14,69C8518,2989,8436,2948,8340,2899z M8043,2668c17-18,22-34,22-79c0-32-7-70-17-90c-9-19-31-72-48-119
		c-18-47-38-99-46-117c-8-17-14-34-14-37c0-14-83-116-114-139c-34-27-100-57-122-57s-64,53-64,81c0,29,30,149,55,219
		c27,75,93,202,133,255C7902,2683,7992,2718,8043,2668z"/>
</g>
</svg>
